<?xml version="1.0" standalone="no"?><!DOCTYPE svg PUBLIC "-//W3C//DTD SVG 1.1//EN" "http://www.w3.org/Graphics/SVG/1.1/DTD/svg11.dtd"><svg height="1024" node-id="1" sillyvg="true" template-height="1024" template-width="1101" version="1.1" viewBox="0 0 1101 1024" width="1101" xmlns="http://www.w3.org/2000/svg" xmlns:xlink="http://www.w3.org/1999/xlink"><defs node-id="33"></defs><path d="M 0.00 0.00 L 1100.60 0.00 L 1100.60 1024.00 L 0.00 1024.00 Z" fill="#ffffff" fill-rule="nonzero" node-id="35" stroke="none" target-height="1024" target-width="1100.6" target-x="0" target-y="0"></path><path d="M 363.14 206.24 C 402.31 171.87 456.11 163.28 506.23 158.88 C 573.14 154.26 641.80 157.01 706.00 177.91 C 764.03 195.39 809.21 242.61 834.82 296.28 C 858.34 351.06 872.70 409.93 876.35 469.47 C 876.62 510.02 872.12 556.22 839.93 584.99 C 793.60 625.58 730.06 635.63 671.37 645.33 L 675.06 651.11 C 640.95 624.34 596.44 622.78 555.00 621.85 C 560.21 626.43 565.67 630.70 571.50 634.52 C 573.50 639.54 575.59 644.61 577.10 649.82 C 568.12 650.71 559.14 650.84 550.16 651.60 C 558.38 648.97 566.34 645.77 574.26 642.21 C 565.27 640.30 556.25 639.46 547.18 638.97 C 548.60 636.92 551.45 632.83 552.91 630.78 C 550.42 623.72 548.02 616.69 545.89 609.53 C 532.95 596.19 523.08 580.23 517.65 562.35 C 526.01 564.53 534.33 566.80 542.69 569.25 C 536.50 558.80 524.72 555.37 513.21 556.35 C 509.34 565.38 515.43 574.00 519.08 581.96 C 525.97 596.15 536.33 608.20 546.87 619.80 C 509.92 628.83 468.30 623.00 435.04 644.26 L 438.59 639.90 C 383.81 632.43 324.63 621.36 283.19 581.74 C 253.89 554.66 245.97 512.55 246.46 474.31 C 247.84 414.55 263.09 355.37 288.35 301.30 C 306.58 265.11 332.50 232.69 363.14 206.24 Z M 349.93 486.76 C 324.68 480.32 289.19 494.23 287.15 523.23 C 287.64 556.17 318.98 582.32 350.91 582.50 C 379.50 583.65 412.76 584.19 434.59 562.53 C 449.62 549.01 449.84 527.58 452.60 509.04 C 475.72 485.48 487.33 450.97 481.50 418.24 C 478.61 404.06 467.67 391.43 453.18 388.59 C 399.06 381.12 342.68 431.00 349.93 486.76 Z M 632.10 429.23 C 630.82 460.66 642.11 494.81 667.45 514.73 C 668.03 530.65 663.81 549.55 675.99 562.31 C 697.82 583.70 730.10 589.34 759.63 586.76 C 780.97 586.28 800.80 575.87 816.23 561.60 C 828.86 549.37 835.13 527.27 823.61 512.33 C 809.74 495.83 787.20 490.10 766.39 490.81 C 777.50 435.01 721.26 381.38 666.56 387.52 C 646.47 390.19 632.46 409.71 632.10 429.23 Z M 533.79 495.26 C 538.95 505.08 560.38 508.95 549.84 522.16 C 543.22 539.10 520.14 543.06 506.36 532.47 C 497.51 527.00 495.55 516.20 491.55 507.40 C 482.66 512.15 488.39 521.58 492.00 527.80 C 499.02 538.43 511.38 545.15 523.92 546.57 C 538.73 547.24 549.27 535.36 557.36 524.56 C 567.99 542.61 592.98 550.66 611.38 539.59 C 622.81 533.90 628.28 521.49 629.66 509.40 C 617.03 509.26 621.17 526.60 611.65 531.59 C 593.15 546.39 563.85 533.32 560.96 510.06 C 571.23 504.95 578.92 496.50 584.62 486.68 C 574.17 473.91 556.25 475.29 541.62 477.29 C 533.35 478.41 527.21 488.36 533.79 495.26 Z" fill="#fdfdfd" fill-rule="nonzero" node-id="37" stroke="none" target-height="497.33795" target-width="630.642" target-x="245.973" target-y="154.257"></path><path d="M 263.71 160.79 C 303.73 124.33 375.32 125.53 408.31 170.75 C 457.89 151.94 511.65 149.19 564.12 148.66 C 601.60 149.85 639.31 152.30 675.90 160.97 C 694.58 164.97 712.32 172.35 730.99 176.49 C 757.45 141.14 809.43 130.16 848.91 148.83 C 894.45 168.93 919.52 227.40 900.23 273.73 C 891.73 294.63 873.06 309.22 853.23 318.73 C 871.24 370.09 883.77 423.80 885.77 478.32 C 884.88 509.66 881.24 542.83 863.99 569.91 C 856.70 581.56 846.91 591.30 837.66 601.35 C 852.34 652.00 859.14 705.62 854.47 758.31 C 899.60 758.98 944.91 756.26 990.00 759.69 C 987.02 764.18 982.93 766.22 977.68 765.82 C 936.20 766.05 894.71 765.47 853.23 765.51 C 849.54 783.39 842.91 801.80 828.10 813.45 C 812.90 826.70 792.40 829.85 774.17 836.75 C 769.19 846.26 767.72 857.73 759.94 865.65 C 745.22 882.63 721.21 885.61 700.13 887.30 C 697.51 886.06 692.22 883.61 689.60 882.37 C 670.48 876.76 650.33 880.37 630.77 878.99 C 567.14 875.65 503.38 876.54 439.79 872.63 C 420.41 871.52 400.58 868.80 384.17 857.64 C 403.07 849.02 423.21 842.17 440.11 829.81 C 445.35 811.93 441.35 791.66 431.21 776.23 C 420.32 759.11 399.91 752.53 385.46 739.15 C 402.04 740.35 416.89 747.68 428.94 758.89 C 429.57 758.98 430.86 759.20 431.48 759.29 L 438.86 760.22 C 443.75 776.10 448.06 793.30 459.40 805.93 C 479.37 819.85 505.29 820.07 528.72 821.67 C 564.38 822.38 605.60 823.27 632.99 796.33 C 629.75 788.55 626.59 780.72 623.88 772.76 C 618.23 746.84 631.13 716.11 658.03 708.55 C 660.16 707.98 664.47 706.82 666.61 706.24 C 668.57 705.71 672.43 704.64 674.39 704.11 C 674.79 689.57 674.57 674.72 670.39 660.71 L 669.05 655.68 C 672.21 657.11 678.52 659.87 681.68 661.24 C 680.04 658.71 676.75 653.64 675.06 651.11 L 671.37 645.33 C 730.06 635.63 793.60 625.58 839.93 584.99 C 872.12 556.22 876.62 510.02 876.35 469.47 C 872.70 409.93 858.34 351.06 834.82 296.28 C 809.21 242.61 764.03 195.39 706.00 177.91 C 641.80 157.01 573.14 154.26 506.22 158.88 C 456.11 163.28 402.31 171.87 363.14 206.24 C 332.50 232.69 306.58 265.11 288.35 301.30 C 263.09 355.37 247.84 414.55 246.46 474.31 C 245.97 512.55 253.89 554.66 283.19 581.74 C 324.63 621.36 383.81 632.43 438.59 639.90 L 435.04 644.26 C 433.79 645.95 431.30 649.28 430.06 650.93 C 413.43 678.85 420.32 713.36 419.30 744.30 C 407.38 741.37 395.20 739.37 383.77 734.97 C 381.72 729.72 379.94 724.38 378.43 718.96 C 379.37 727.98 380.17 737.06 380.92 746.13 C 398.53 755.82 419.43 763.51 429.70 782.10 C 436.59 794.28 442.24 811.09 432.81 823.45 C 418.45 843.01 392.93 852.80 369.05 850.31 C 329.03 846.97 293.19 822.21 270.43 789.97 C 250.55 761.56 248.28 725.50 247.53 691.97 C 247.08 658.84 258.20 626.83 275.54 598.90 C 281.46 593.03 274.25 587.61 271.01 582.67 C 245.62 554.57 237.17 515.49 237.35 478.54 C 237.66 419.49 253.40 361.60 275.41 307.17 C 259.80 298.99 244.95 287.38 238.64 270.31 C 224.72 233.36 232.90 187.03 263.71 160.79 Z M 258.64 198.99 C 245.66 228.02 246.91 264.49 264.69 291.34 C 250.38 259.33 246.55 218.73 268.56 189.16 C 297.51 147.77 363.14 139.50 400.13 174.80 C 395.46 168.22 390.30 161.64 382.70 158.30 C 339.35 136.47 279.90 154.48 258.64 198.99 Z M 739.80 181.29 C 751.54 173.91 762.43 164.35 776.30 161.02 C 818.10 149.72 865.86 175.38 879.59 216.46 C 889.38 241.14 882.44 267.82 875.68 292.28 C 885.46 277.78 891.69 260.71 890.53 243.01 C 890.89 195.21 847.18 153.19 799.87 152.92 C 776.97 151.63 752.07 161.06 739.80 181.29 Z M 831.30 609.00 C 827.57 614.42 828.64 617.76 834.55 618.96 C 838.24 613.49 837.17 610.15 831.30 609.00 Z M 845.18 700.91 C 846.78 733.19 850.91 770.09 828.50 796.73 C 805.74 821.89 769.86 828.48 737.57 831.23 C 704.67 832.30 666.79 824.56 646.38 796.28 C 634.06 780.41 633.44 759.73 632.90 740.57 C 626.99 774.89 645.35 813.22 679.68 824.07 C 722.14 839.95 770.97 834.52 810.90 814.07 C 839.09 799.88 848.69 765.42 847.18 736.03 C 848.69 698.55 843.44 661.42 836.86 624.65 C 837.17 650.30 844.11 675.29 845.18 700.91 Z M 328.45 635.32 C 351.22 656.75 365.49 685.21 375.90 714.25 C 375.81 711.44 375.68 705.75 375.63 702.95 C 387.42 703.75 399.15 704.91 410.85 706.73 C 411.07 705.53 411.47 703.17 411.69 701.97 C 399.02 700.28 386.30 699.88 373.59 699.66 C 361.49 676.50 352.42 649.15 328.45 635.32 Z M 753.76 691.35 C 731.62 701.84 705.96 695.26 683.19 702.95 C 704.63 702.86 726.19 701.62 747.27 697.44 C 761.94 693.48 767.54 678.18 772.39 665.42 C 766.57 674.23 763.14 685.48 753.76 691.35 Z M 652.20 714.78 L 652.25 719.05 C 677.95 717.85 703.56 715.22 729.26 713.85 C 735.93 714.07 741.49 710.29 746.78 706.69 C 715.30 710.38 683.46 709.13 652.20 714.78 Z M 497.78 827.27 C 479.99 826.38 464.96 815.40 447.66 812.56 C 476.88 835.06 515.87 833.01 550.69 833.19 C 581.46 831.99 617.16 828.88 638.68 804.02 C 598.98 835.28 545.22 832.30 497.78 827.27 Z M 739.31 867.51 C 724.06 874.10 707.07 873.61 690.98 876.45 C 701.25 882.59 713.47 879.21 724.50 877.43 C 739.62 873.78 757.72 867.47 761.81 850.40 C 754.38 856.22 747.58 862.98 739.31 867.51 Z" fill="#2f1925" fill-rule="nonzero" node-id="39" stroke="none" target-height="762.969" target-width="765.281" target-x="224.719" target-y="124.33301"></path><path d="M 258.64 198.99 C 279.90 154.48 339.35 136.47 382.70 158.30 C 390.30 161.64 395.46 168.22 400.13 174.80 C 363.14 139.50 297.51 147.77 268.56 189.16 C 246.55 218.73 250.38 259.33 264.69 291.34 C 246.91 264.49 245.66 228.02 258.64 198.99 Z" fill="#a26a69" fill-rule="nonzero" node-id="41" stroke="none" target-height="154.87001" target-width="154.46996" target-x="245.662" target-y="136.472"></path><path d="M 271.01 582.67 C 274.25 587.61 281.46 593.03 275.54 598.90 C 258.20 626.83 247.09 658.84 247.53 691.97 C 248.28 725.50 250.55 761.56 270.43 789.97 C 293.19 822.21 329.03 846.97 369.05 850.31 C 392.93 852.80 418.45 843.01 432.81 823.45 C 442.24 811.09 436.59 794.28 429.70 782.10 C 419.43 763.51 398.53 755.82 380.92 746.13 C 380.17 737.06 379.37 727.98 378.43 718.96 C 379.94 724.38 381.72 729.72 383.77 734.97 C 395.20 739.37 407.38 741.37 419.30 744.30 C 420.32 713.36 413.43 678.85 430.06 650.93 C 425.21 671.69 424.77 693.17 423.88 714.38 C 423.61 729.59 421.61 746.35 431.48 759.29 C 430.86 759.20 429.57 758.98 428.94 758.89 C 416.89 747.68 402.04 740.35 385.46 739.14 C 399.91 752.53 420.32 759.11 431.21 776.23 C 441.35 791.66 445.35 811.93 440.11 829.81 C 423.21 842.17 403.07 849.02 384.17 857.64 C 400.58 868.80 420.41 871.52 439.79 872.63 C 503.38 876.54 567.14 875.65 630.77 878.99 C 650.33 880.37 670.48 876.76 689.60 882.37 C 624.14 882.37 558.60 880.68 493.15 881.17 L 487.15 887.43 C 457.98 887.75 428.28 885.92 399.64 879.79 C 405.51 880.41 411.12 879.56 416.45 877.34 C 403.69 870.58 384.12 870.49 380.30 853.20 C 375.19 854.98 370.07 856.80 364.96 858.62 C 363.58 859.11 360.74 860.09 359.31 860.58 L 361.27 859.16 C 362.92 857.96 366.25 855.55 367.89 854.40 C 328.99 848.84 292.08 828.61 269.85 795.70 C 243.84 761.07 242.73 715.45 244.95 673.96 C 246.20 647.24 258.69 623.27 270.21 599.75 C 270.16 598.59 270.03 596.24 269.94 595.08 L 268.38 593.97 C 269.18 590.19 270.03 586.41 271.01 582.67 Z M 425.92 879.25 C 426.50 880.37 427.61 882.59 428.19 883.70 C 448.06 885.08 468.03 885.03 487.90 886.63 L 487.37 878.94 C 467.05 880.37 444.86 875.16 425.92 879.25 Z" fill="#a26a69" fill-rule="nonzero" node-id="43" stroke="none" target-height="305.07196" target-width="446.86996" target-x="242.72702" target-y="582.674"></path><path d="M 739.80 181.29 C 752.07 161.06 776.97 151.63 799.87 152.92 C 847.18 153.19 890.89 195.21 890.53 243.01 C 891.69 260.71 885.46 277.78 875.68 292.28 C 882.44 267.82 889.38 241.14 879.59 216.46 C 865.86 175.38 818.10 149.72 776.30 161.02 C 762.43 164.35 751.54 173.91 739.80 181.29 Z" fill="#644a51" fill-rule="nonzero" node-id="45" stroke="none" target-height="142.554" target-width="151.89105" target-x="739.798" target-y="149.722"></path><path d="M 845.18 700.91 C 844.11 675.29 837.17 650.30 836.86 624.65 C 843.45 661.42 848.69 698.55 847.18 736.03 C 848.69 765.42 839.09 799.88 810.90 814.07 C 770.97 834.52 722.14 839.95 679.68 824.07 C 645.36 813.22 626.99 774.89 632.90 740.57 C 633.44 759.73 634.06 780.41 646.38 796.28 C 666.79 824.56 704.67 832.30 737.57 831.23 C 769.86 828.48 805.74 821.89 828.50 796.73 C 850.91 770.09 846.78 733.19 845.18 700.91 Z" fill="#facfd1" fill-rule="nonzero" node-id="47" stroke="none" target-height="215.2981" target-width="223.92395" target-x="626.991" target-y="624.649"></path><path d="M 753.76 691.35 C 763.14 685.48 766.57 674.23 772.39 665.42 C 767.54 678.18 761.94 693.48 747.27 697.44 C 726.19 701.62 704.63 702.86 683.19 702.95 C 705.96 695.26 731.62 701.84 753.76 691.35 Z" fill="#facfd1" fill-rule="nonzero" node-id="49" stroke="none" target-height="37.528015" target-width="89.196045" target-x="683.194" target-y="665.423"></path><path d="M 497.78 827.27 C 545.22 832.30 598.98 835.28 638.68 804.02 C 617.16 828.88 581.46 831.99 550.69 833.19 C 515.87 833.01 476.88 835.06 447.66 812.56 C 464.96 815.40 479.99 826.38 497.78 827.27 Z" fill="#facfd1" fill-rule="nonzero" node-id="51" stroke="none" target-height="31.259033" target-width="191.021" target-x="447.664" target-y="804.019"></path><path d="M 349.93 486.76 C 342.68 431.00 399.06 381.12 453.18 388.59 C 467.67 391.43 478.61 404.06 481.50 418.24 C 487.33 450.97 475.72 485.48 452.60 509.04 C 431.35 527.72 398.80 530.65 373.54 519.00 C 360.43 513.31 353.31 499.97 349.93 486.76 Z M 423.21 472.71 C 434.06 471.02 443.26 463.73 446.69 453.10 C 435.26 443.23 417.25 459.55 423.21 472.71 Z" fill="#311a27" fill-rule="nonzero" node-id="53" stroke="none" target-height="149.535" target-width="144.64398" target-x="342.683" target-y="381.116"></path><path d="M 632.10 429.23 C 632.46 409.71 646.47 390.19 666.56 387.52 C 721.25 381.38 777.50 435.01 766.39 490.81 C 754.60 532.12 698.36 537.10 667.45 514.73 C 642.11 494.81 630.81 460.66 632.10 429.23 Z M 670.57 451.15 C 670.97 462.18 678.61 473.60 690.80 472.22 C 699.25 460.98 682.17 447.41 670.57 451.15 Z" fill="#301a26" fill-rule="nonzero" node-id="55" stroke="none" target-height="155.71503" target-width="146.68896" target-x="630.814" target-y="381.383"></path><path d="M 423.21 472.71 C 417.25 459.55 435.26 443.23 446.69 453.10 C 443.26 463.73 434.06 471.02 423.21 472.71 Z" fill="#fff9fa" fill-rule="nonzero" node-id="57" stroke="none" target-height="29.480011" target-width="29.434998" target-x="417.251" target-y="443.233"></path><path d="M 670.57 451.15 C 682.17 447.41 699.25 460.98 690.80 472.22 C 678.61 473.60 670.97 462.18 670.57 451.15 Z" fill="#fffaf9" fill-rule="nonzero" node-id="59" stroke="none" target-height="26.190002" target-width="28.679932" target-x="670.566" target-y="447.413"></path><path d="M 533.79 495.26 C 527.21 488.36 533.35 478.41 541.62 477.29 C 556.25 475.29 574.17 473.91 584.62 486.68 C 578.92 496.50 571.23 504.95 560.96 510.06 C 563.85 533.32 593.15 546.39 611.65 531.58 C 621.16 526.60 617.03 509.26 629.66 509.40 C 628.28 521.49 622.81 533.90 611.38 539.59 C 592.98 550.66 567.99 542.61 557.36 524.56 C 549.27 535.36 538.73 547.24 523.92 546.57 C 511.38 545.15 499.02 538.43 492.00 527.80 C 488.39 521.58 482.66 512.15 491.55 507.40 C 495.55 516.20 497.51 527.00 506.36 532.47 C 520.14 543.06 543.22 539.10 549.84 522.16 C 560.38 508.95 538.95 505.08 533.79 495.26 Z" fill="#351d27" fill-rule="nonzero" node-id="61" stroke="none" target-height="76.74597" target-width="147.00003" target-x="482.658" target-y="473.914"></path><path d="M 287.15 523.23 C 289.19 494.23 324.68 480.32 349.93 486.76 C 353.31 499.97 360.43 513.31 373.54 519.00 C 398.80 530.65 431.35 527.72 452.60 509.04 C 449.84 527.58 449.62 549.01 434.59 562.53 C 412.76 584.19 379.50 583.65 350.91 582.50 C 318.98 582.32 287.64 556.17 287.15 523.23 Z M 308.27 524.34 C 316.36 524.16 324.50 523.94 332.59 523.67 C 331.97 517.27 331.39 510.86 330.77 504.42 C 319.43 505.44 308.13 511.26 308.27 524.34 Z" fill="#f9d1d2" fill-rule="nonzero" node-id="63" stroke="none" target-height="103.86899" target-width="165.453" target-x="287.147" target-y="480.317"></path><path d="M 766.39 490.81 C 787.20 490.10 809.74 495.83 823.61 512.33 C 835.13 527.27 828.86 549.37 816.23 561.60 C 800.80 575.87 780.97 586.28 759.63 586.76 C 730.10 589.34 697.82 583.70 675.99 562.31 C 663.81 549.55 668.03 530.65 667.45 514.73 C 698.36 537.10 754.60 532.12 766.39 490.81 Z" fill="#facfd0" fill-rule="nonzero" node-id="65" stroke="none" target-height="99.244965" target-width="171.32202" target-x="663.807" target-y="490.09903"></path><path d="M 308.27 524.34 C 308.13 511.26 319.43 505.44 330.77 504.42 C 331.39 510.86 331.97 517.27 332.59 523.67 C 324.50 523.94 316.36 524.16 308.27 524.34 Z" fill="#fbedec" fill-rule="nonzero" node-id="67" stroke="none" target-height="19.919983" target-width="24.455994" target-x="308.134" target-y="504.417"></path><path d="M 513.21 556.35 C 524.72 555.37 536.50 558.80 542.68 569.25 C 534.33 566.80 526.01 564.53 517.65 562.35 C 523.08 580.23 532.95 596.19 545.89 609.53 C 548.02 616.69 550.42 623.72 552.91 630.78 C 551.45 632.83 548.60 636.92 547.18 638.97 C 556.25 639.46 565.27 640.30 574.25 642.21 C 566.34 645.77 558.38 648.97 550.15 651.60 C 559.14 650.84 568.12 650.71 577.10 649.82 C 575.59 644.61 573.50 639.54 571.50 634.52 C 565.67 630.70 560.21 626.43 555.00 621.85 C 596.44 622.78 640.95 624.34 675.06 651.11 C 676.75 653.64 680.04 658.71 681.68 661.24 C 678.52 659.87 672.21 657.11 669.05 655.68 L 670.39 660.71 C 662.52 653.82 653.76 648.13 645.09 642.48 C 653.40 650.30 665.94 656.62 666.79 669.38 C 668.08 681.61 667.14 693.97 666.61 706.24 C 664.47 706.82 660.16 707.98 658.03 708.55 C 658.21 694.33 658.03 680.14 657.45 665.96 C 624.14 675.16 589.33 676.81 555.00 677.21 C 514.81 676.81 474.39 674.00 435.12 664.93 C 434.19 681.74 433.97 698.55 434.68 715.40 C 435.17 730.39 436.68 745.37 438.86 760.22 L 431.48 759.29 C 421.61 746.35 423.61 729.59 423.88 714.38 C 424.77 693.17 425.21 671.69 430.06 650.93 C 431.30 649.28 433.79 645.95 435.04 644.26 C 468.30 623.00 509.92 628.83 546.87 619.80 C 536.33 608.20 525.97 596.15 519.08 581.96 C 515.43 574.00 509.34 565.38 513.21 556.35 Z M 440.91 658.71 C 463.54 665.11 487.06 667.34 510.45 669.07 C 557.45 670.85 605.20 671.16 651.13 659.55 C 632.41 645.46 608.00 646.39 585.82 644.21 C 582.35 649.99 581.50 659.42 573.28 660.35 C 557.94 666.45 543.09 655.73 536.24 642.52 C 504.27 643.41 469.85 644.04 440.91 658.71 Z" fill="#431f2d" fill-rule="nonzero" node-id="69" stroke="none" target-height="204.84906" target-width="260.074" target-x="421.608" target-y="555.373"></path><path d="M 268.38 593.97 L 269.94 595.08 C 270.03 596.24 270.16 598.59 270.21 599.75 C 258.69 623.27 246.20 647.24 244.95 673.96 C 242.73 715.45 243.84 761.07 269.85 795.71 C 292.08 828.61 328.99 848.84 367.89 854.40 C 366.25 855.55 362.92 857.96 361.27 859.16 C 307.96 854.44 265.00 813.36 244.68 765.74 C 199.77 764.76 154.87 766.00 110.00 765.29 C 111.16 763.65 113.42 760.36 114.53 758.71 C 157.13 757.55 199.82 758.00 242.42 758.31 C 231.57 706.42 232.50 649.19 260.78 602.73 C 262.69 600.55 266.47 596.19 268.38 593.97 Z" fill="#2e1923" fill-rule="nonzero" node-id="71" stroke="none" target-height="265.188" target-width="257.895" target-x="110" target-y="593.968"></path><path d="M 364.96 858.62 C 370.07 856.80 375.19 854.98 380.30 853.20 C 384.12 870.49 403.69 870.58 416.45 877.34 C 411.12 879.56 405.51 880.41 399.64 879.79 C 386.48 875.70 375.85 866.67 364.96 858.62 Z" fill="#2e1923" fill-rule="nonzero" node-id="73" stroke="none" target-height="27.212952" target-width="51.490967" target-x="364.96" target-y="853.197"></path><path d="M 831.31 609.00 C 837.17 610.15 838.24 613.49 834.55 618.96 C 828.64 617.76 827.57 614.42 831.31 609.00 Z" fill="#866771" fill-rule="nonzero" node-id="75" stroke="none" target-height="9.960999" target-width="10.6710205" target-x="827.571" target-y="608.997"></path><path d="M 328.45 635.32 C 352.42 649.15 361.49 676.50 373.59 699.66 C 386.30 699.88 399.02 700.28 411.69 701.97 C 411.47 703.17 411.07 705.53 410.85 706.73 C 399.15 704.91 387.42 703.75 375.63 702.95 C 375.68 705.75 375.81 711.44 375.90 714.25 C 365.49 685.21 351.22 656.75 328.45 635.32 Z" fill="#e0cbc8" fill-rule="nonzero" node-id="77" stroke="none" target-height="78.92401" target-width="83.237976" target-x="328.455" target-y="635.321"></path><path d="M 645.09 642.48 C 653.76 648.13 662.52 653.82 670.39 660.71 C 674.57 674.72 674.79 689.57 674.39 704.11 C 672.43 704.64 668.57 705.71 666.61 706.24 C 667.14 693.97 668.08 681.61 666.79 669.38 C 665.94 656.62 653.40 650.30 645.09 642.48 Z" fill="#e0cbc8" fill-rule="nonzero" node-id="79" stroke="none" target-height="63.763" target-width="29.701965" target-x="645.088" target-y="642.479"></path><path d="M 440.91 658.71 C 469.85 644.04 504.27 643.41 536.24 642.52 C 543.09 655.73 557.94 666.45 573.28 660.35 C 581.50 659.42 582.35 649.99 585.82 644.21 C 608.00 646.39 632.41 645.46 651.13 659.55 C 605.20 671.16 557.45 670.85 510.45 669.07 C 487.06 667.34 463.54 665.11 440.91 658.71 Z" fill="#cc8664" fill-rule="nonzero" node-id="81" stroke="none" target-height="28.63501" target-width="210.229" target-x="440.906" target-y="642.524"></path><path d="M 435.12 664.93 C 474.39 674.00 514.81 676.81 555.00 677.21 C 589.33 676.81 624.14 675.16 657.45 665.96 C 658.03 680.14 658.20 694.33 658.03 708.55 C 631.12 716.11 618.23 746.84 623.88 772.76 C 600.00 774.81 579.28 788.77 555.53 791.44 C 529.12 795.71 498.40 792.81 478.57 773.03 C 457.27 748.79 451.31 715.93 446.78 685.08 C 441.35 694.55 436.64 704.55 434.68 715.40 C 433.97 698.55 434.19 681.74 435.12 664.93 Z" fill="#feffff" fill-rule="nonzero" node-id="83" stroke="none" target-height="130.771" target-width="224.23499" target-x="433.969" target-y="664.934"></path><path d="M 434.68 715.40 C 436.64 704.55 441.35 694.55 446.78 685.08 C 451.31 715.93 457.27 748.79 478.57 773.03 C 498.40 792.81 529.12 795.71 555.54 791.44 C 579.28 788.77 600.00 774.81 623.88 772.76 C 626.59 780.72 629.75 788.55 632.99 796.33 C 605.60 823.27 564.38 822.38 528.72 821.67 C 505.29 820.07 479.37 819.85 459.40 805.93 C 448.06 793.30 443.75 776.10 438.86 760.22 C 436.68 745.37 435.17 730.39 434.68 715.40 Z" fill="#e8e6e9" fill-rule="nonzero" node-id="85" stroke="none" target-height="138.19702" target-width="198.31198" target-x="434.681" target-y="685.076"></path><path d="M 652.20 714.78 C 683.46 709.13 715.30 710.38 746.78 706.69 C 741.49 710.29 735.93 714.07 729.26 713.85 C 703.56 715.22 677.95 717.85 652.25 719.05 L 652.20 714.78 Z" fill="#7b5e63" fill-rule="nonzero" node-id="87" stroke="none" target-height="12.3619995" target-width="94.57605" target-x="652.202" target-y="706.686"></path><path d="M 425.92 879.25 C 444.86 875.16 467.05 880.37 487.37 878.94 L 487.90 886.63 C 468.03 885.03 448.06 885.08 428.19 883.70 C 427.61 882.59 426.50 880.37 425.92 879.25 Z" fill="#2f1724" fill-rule="nonzero" node-id="89" stroke="none" target-height="11.472046" target-width="61.98401" target-x="425.921" target-y="875.16296"></path><path d="M 739.31 867.51 C 747.58 862.98 754.38 856.22 761.81 850.40 C 757.72 867.47 739.62 873.78 724.50 877.43 C 713.47 879.21 701.25 882.59 690.98 876.45 C 707.07 873.61 724.06 874.10 739.31 867.51 Z" fill="#5f3f49" fill-rule="nonzero" node-id="91" stroke="none" target-height="32.192017" target-width="70.83203" target-x="690.975" target-y="850.39594"></path><path d="M 493.15 881.17 C 558.60 880.68 624.14 882.37 689.60 882.37 C 692.22 883.61 697.51 886.06 700.13 887.30 C 629.26 891.44 558.07 889.26 487.15 887.43 L 493.15 881.17 Z" fill="#280d1a" fill-rule="nonzero" node-id="93" stroke="none" target-height="10.760925" target-width="212.98602" target-x="487.149" target-y="880.676"></path></svg>